<svg width="6" height="7" viewBox="0 0 6 7" fill="none" xmlns="http://www.w3.org/2000/svg">
<path d="M2.01016 0.681519C2.67025 0.681519 3.33005 0.681519 3.99316 0.681519C3.99678 1.36954 4.00312 2.061 4.00674 2.74871C4.66985 2.75559 5.33659 2.75904 6 2.76248C6 3.4505 6 4.13476 6 4.82278C5.33689 4.82622 4.67015 4.82967 4.00674 4.83311C4.0001 5.52457 3.99678 6.21228 3.99316 6.90374C3.33005 6.9003 2.66633 6.90374 2.00654 6.90374C2.0002 6.21228 2.0002 5.52457 1.99326 4.83655C1.33015 4.82935 0.663414 4.82622 0 4.82247C0 4.13445 0 3.45019 0 2.76217C0.663414 2.75872 1.32683 2.75528 1.99326 2.74839C1.99658 2.061 2.00322 1.36954 2.01016 0.681519Z" fill="#5A5A5A"/>
</svg>
